<svg width="42" height="42" viewBox="0 0 42 42" fill="none" xmlns="http://www.w3.org/2000/svg">
<path fill-rule="evenodd" clip-rule="evenodd" d="M15.3171 22.0648V21.8775C15.3446 21.3231 15.5223 20.7859 15.8318 20.3214C16.347 19.7634 16.6997 19.0796 16.8529 18.3418C16.8529 17.7715 16.8529 17.1931 16.9027 16.6228C17.1601 13.8773 19.8747 11.9791 22.5561 11.9791H22.6226C25.304 11.9791 28.0186 13.8773 28.2843 16.6228C28.3341 17.1931 28.2843 17.7715 28.3258 18.3418C28.481 19.0813 28.8334 19.7672 29.3469 20.3296C29.6588 20.79 29.8367 21.3252 29.8616 21.8775V22.0567C29.8801 22.8015 29.6236 23.5277 29.1394 24.1015C28.4994 24.7724 27.6311 25.1898 26.6987 25.2747C23.9645 25.568 21.2059 25.568 18.4717 25.2747C17.5404 25.1862 16.6733 24.7694 16.0311 24.1015C15.5543 23.5273 15.3012 22.8054 15.3171 22.0648Z" stroke="black" stroke-width="1.5" stroke-linecap="round" stroke-linejoin="round"/>
<path d="M20.4961 28.1097C20.9233 28.646 21.5507 28.993 22.2393 29.074C22.928 29.1551 23.6211 28.9634 24.1654 28.5415C24.3328 28.4167 24.4834 28.2717 24.6137 28.1097" stroke="black" stroke-width="1.5" stroke-linecap="round" stroke-linejoin="round"/>
</svg>
