<svg width="18" height="18" viewBox="0 0 18 18" fill="none" xmlns="http://www.w3.org/2000/svg">
<mask id="path-1-inside-1_489_5427" fill="white">
<path d="M17.2952 8.64783C17.2952 13.4239 13.4235 17.2957 8.6476 17.2957C3.87166 17.2957 0 13.4239 0 8.64783C0 3.87177 3.87166 0 8.6476 0C13.4235 0 17.2952 3.87177 17.2952 8.64783ZM2.50579 8.64783C2.50579 12.04 5.25557 14.7898 8.6476 14.7898C12.0396 14.7898 14.7894 12.04 14.7894 8.64783C14.7894 5.25572 12.0396 2.50586 8.6476 2.50586C5.25557 2.50586 2.50579 5.25572 2.50579 8.64783Z"/>
</mask>
<path d="M17.2952 8.64783C17.2952 13.4239 13.4235 17.2957 8.6476 17.2957C3.87166 17.2957 0 13.4239 0 8.64783C0 3.87177 3.87166 0 8.6476 0C13.4235 0 17.2952 3.87177 17.2952 8.64783ZM2.50579 8.64783C2.50579 12.04 5.25557 14.7898 8.6476 14.7898C12.0396 14.7898 14.7894 12.04 14.7894 8.64783C14.7894 5.25572 12.0396 2.50586 8.6476 2.50586C5.25557 2.50586 2.50579 5.25572 2.50579 8.64783Z" fill="#FFE5C8" stroke="url(#paint0_linear_489_5427)" stroke-width="7.5" mask="url(#path-1-inside-1_489_5427)"/>
<mask id="path-2-inside-2_489_5427" fill="white">
<path d="M16.0137 8.64783C16.7214 8.64783 17.3049 8.07098 17.2004 7.37097C17.0463 6.33865 16.706 5.33915 16.1926 4.42232C15.4696 3.13134 14.4275 2.04745 13.166 1.27434C11.9044 0.501233 10.4656 0.0647574 8.9871 0.00666714C7.50864 -0.0514232 6.04 0.270815 4.72167 0.942558C3.40334 1.6143 2.2794 2.61308 1.45738 3.84336C0.63536 5.07363 0.142745 6.49425 0.0266575 7.96933C-0.0894303 9.44441 0.174892 10.9246 0.794342 12.2683C1.23425 13.2226 1.84281 14.0854 2.58735 14.8168C3.09225 15.3129 3.90193 15.1799 4.31795 14.6072C4.73396 14.0346 4.59407 13.2405 4.12111 12.714C3.71549 12.2624 3.3781 11.7509 3.12197 11.1953C2.68612 10.2498 2.50014 9.20832 2.58182 8.17043C2.6635 7.13255 3.01011 6.13299 3.58849 5.26735C4.16687 4.40172 4.95768 3.69897 5.88527 3.22632C6.81287 2.75368 7.84622 2.52695 8.88647 2.56782C9.92673 2.60869 10.9391 2.9158 11.8268 3.45977C12.7144 4.00374 13.4476 4.76637 13.9563 5.67472C14.2553 6.20852 14.4708 6.78215 14.5977 7.37574C14.7456 8.06787 15.3059 8.64783 16.0137 8.64783Z"/>
</mask>
<path d="M16.0137 8.64783C16.7214 8.64783 17.3049 8.07098 17.2004 7.37097C17.0463 6.33865 16.706 5.33915 16.1926 4.42232C15.4696 3.13134 14.4275 2.04745 13.166 1.27434C11.9044 0.501233 10.4656 0.0647574 8.9871 0.00666714C7.50864 -0.0514232 6.04 0.270815 4.72167 0.942558C3.40334 1.6143 2.2794 2.61308 1.45738 3.84336C0.63536 5.07363 0.142745 6.49425 0.0266575 7.96933C-0.0894303 9.44441 0.174892 10.9246 0.794342 12.2683C1.23425 13.2226 1.84281 14.0854 2.58735 14.8168C3.09225 15.3129 3.90193 15.1799 4.31795 14.6072C4.73396 14.0346 4.59407 13.2405 4.12111 12.714C3.71549 12.2624 3.3781 11.7509 3.12197 11.1953C2.68612 10.2498 2.50014 9.20832 2.58182 8.17043C2.6635 7.13255 3.01011 6.13299 3.58849 5.26735C4.16687 4.40172 4.95768 3.69897 5.88527 3.22632C6.81287 2.75368 7.84622 2.52695 8.88647 2.56782C9.92673 2.60869 10.9391 2.9158 11.8268 3.45977C12.7144 4.00374 13.4476 4.76637 13.9563 5.67472C14.2553 6.20852 14.4708 6.78215 14.5977 7.37574C14.7456 8.06787 15.3059 8.64783 16.0137 8.64783Z" fill="url(#paint1_radial_489_5427)" stroke="url(#paint2_linear_489_5427)" stroke-width="0.75" mask="url(#path-2-inside-2_489_5427)"/>
<defs>
<linearGradient id="paint0_linear_489_5427" x1="8.6476" y1="0" x2="8.6476" y2="17.2957" gradientUnits="userSpaceOnUse">
<stop stop-color="white" stop-opacity="0.4"/>
<stop offset="1" stop-color="white" stop-opacity="0.1"/>
</linearGradient>
<radialGradient id="paint1_radial_489_5427" cx="0" cy="0" r="1" gradientTransform="matrix(-28.3166 9.3261 -5.8027 -17.6196 19.3299 5.59566)" gradientUnits="userSpaceOnUse">
<stop offset="0.0721154" stop-color="#F4953D"/>
<stop offset="0.520879" stop-color="#60DCA0"/>
<stop offset="0.73827" stop-color="#25C276"/>
</radialGradient>
<linearGradient id="paint2_linear_489_5427" x1="8.6476" y1="0" x2="8.6476" y2="17.2957" gradientUnits="userSpaceOnUse">
<stop stop-color="white" stop-opacity="0.4"/>
<stop offset="1" stop-color="white" stop-opacity="0.1"/>
</linearGradient>
</defs>
</svg>
