<svg width="27" height="27" viewBox="0 0 27 27" fill="none" xmlns="http://www.w3.org/2000/svg">
<rect width="27" height="27" rx="6" fill="url(#paint0_radial_489_5532)"/>
<path d="M13.8516 5.34473C14.2948 5.3673 14.7477 5.40709 15.0137 5.4541C18.4814 6.06749 21.339 8.80326 22.1699 12.3086C22.8063 14.9936 22.2382 17.8392 20.6348 20.0068C20.3724 20.3615 20.0897 20.6912 19.8311 20.9512C19.5708 21.2127 19.3402 21.398 19.1807 21.4736C18.8331 21.6381 18.5441 21.6976 18.2441 21.6504C17.9414 21.6026 17.6177 21.4448 17.2041 21.1562C16.2013 20.4568 15.1097 20.0717 13.9121 19.9941C12.4163 19.8974 10.8603 20.3482 9.65039 21.2295V21.2305C9.46839 21.3631 9.26337 21.4751 9.06836 21.5537C8.87217 21.6328 8.69109 21.6754 8.55566 21.6748C8.43547 21.6742 8.24825 21.6351 8.05859 21.5742C7.86944 21.5135 7.68877 21.4348 7.58008 21.3613C7.46491 21.2835 7.19075 21.0204 6.97363 20.7754C5.64346 19.2743 4.87487 17.6012 4.62305 15.6592C4.57376 15.2785 4.56367 14.7057 4.58594 14.1338C4.60821 13.5619 4.6629 12.9969 4.74121 12.6309C5.33869 9.83927 7.09977 7.52204 9.59766 6.24023C10.409 5.82391 11.7383 5.44625 12.7666 5.33984C12.9812 5.31767 13.4076 5.32213 13.8516 5.34473ZM14.375 9.87598C12.093 9.42997 9.87867 10.7138 9.16895 12.8975C8.74799 14.1931 8.83193 15.4657 9.4209 16.7207C9.538 16.9702 9.62782 17.1383 9.74805 17.3047C9.86781 17.4704 10.0167 17.632 10.251 17.8691C10.8113 18.4363 11.3018 18.7493 11.9893 18.9766C12.8039 19.2458 13.9893 19.2642 14.8281 19.0205C16.8002 18.4474 18.056 16.6942 18.0547 14.5312C18.0532 12.1438 16.6106 10.313 14.375 9.87598Z" fill="#F4F4FE" stroke="url(#paint1_linear_489_5532)" stroke-width="0.15"/>
<defs>
<radialGradient id="paint0_radial_489_5532" cx="0" cy="0" r="1" gradientTransform="matrix(-16.6765 27 -27 -18.8262 21.4412 -1.05677e-06)" gradientUnits="userSpaceOnUse">
<stop stop-color="#9788F9"/>
<stop offset="0.623909" stop-color="#6D4AF7"/>
</radialGradient>
<linearGradient id="paint1_linear_489_5532" x1="13.5" y1="5.25" x2="13.5" y2="21.75" gradientUnits="userSpaceOnUse">
<stop stop-color="white" stop-opacity="0.8"/>
<stop offset="1" stop-color="white" stop-opacity="0.2"/>
</linearGradient>
</defs>
</svg>
