<svg width="18" height="18" viewBox="0 0 18 18" fill="none" xmlns="http://www.w3.org/2000/svg">
<path d="M1.5 6.6C1.5 5.33988 1.5 4.70982 1.74524 4.22852C1.96095 3.80516 2.30516 3.46095 2.72852 3.24524C3.20982 3 3.83988 3 5.1 3H12.9C14.1601 3 14.7902 3 15.2715 3.24524C15.6948 3.46095 16.039 3.80516 16.2548 4.22852C16.5 4.70982 16.5 5.33988 16.5 6.6V11.4C16.5 12.6601 16.5 13.2902 16.2548 13.7715C16.039 14.1948 15.6948 14.539 15.2715 14.7548C14.7902 15 14.1601 15 12.9 15H5.1C3.83988 15 3.20982 15 2.72852 14.7548C2.30516 14.539 1.96095 14.1948 1.74524 13.7715C1.5 13.2902 1.5 12.6601 1.5 11.4V6.6Z" fill="#BABDCC"/>
<path fill-rule="evenodd" clip-rule="evenodd" d="M4.63161 6.3258C4.86592 5.98424 5.33277 5.89729 5.67434 6.13161L8.5758 8.12201C8.83146 8.29739 9.16868 8.29739 9.42434 8.12201L12.3258 6.13161C12.6674 5.89729 13.1342 5.98424 13.3685 6.3258C13.6028 6.66737 13.5159 7.13422 13.1743 7.36853L10.2729 9.35894C9.5059 9.88509 8.49424 9.88508 7.72727 9.35894L4.8258 7.36853C4.48424 7.13422 4.39729 6.66737 4.63161 6.3258Z" fill="#12131A"/>
</svg>
