<svg width="42" height="42" viewBox="0 0 42 42" fill="none" xmlns="http://www.w3.org/2000/svg">
<g clip-path="url(#clip0_489_5519)">
<path d="M31.1443 18.8247V21.3917C31.1443 24.8143 29.433 26.5256 26.0104 26.5256H25.5826C25.3173 26.5256 25.0606 26.654 24.8981 26.8679L23.6146 28.5792C23.0499 29.3322 22.1257 29.3322 21.561 28.5792L20.2775 26.8679C20.1406 26.6796 19.824 26.5256 19.593 26.5256H19.1652C15.7426 26.5256 14.0312 25.67 14.0312 21.3917V17.1134C14.0312 13.6908 15.7426 11.9795 19.1652 11.9795H24.2991" stroke="black" stroke-width="1.5" stroke-miterlimit="10" stroke-linecap="round" stroke-linejoin="round"/>
<path d="M29.0063 16.2578C30.1877 16.2578 31.1455 15.3 31.1455 14.1186C31.1455 12.9372 30.1877 11.9795 29.0063 11.9795C27.8249 11.9795 26.8672 12.9372 26.8672 14.1186C26.8672 15.3 27.8249 16.2578 29.0063 16.2578Z" fill="#3C81F6" stroke="#3C81F6" stroke-width="1.02679" stroke-linecap="round" stroke-linejoin="round"/>
<path fill-rule="evenodd" clip-rule="evenodd" d="M26.0091 19.68H26.0168H26.0091Z" fill="black"/>
<path d="M26.0091 19.68H26.0168" stroke="black" stroke-width="1.875" stroke-linecap="round" stroke-linejoin="round"/>
<path fill-rule="evenodd" clip-rule="evenodd" d="M22.5872 19.68H22.5949H22.5872Z" fill="black"/>
<path d="M22.5872 19.68H22.5949" stroke="black" stroke-width="1.875" stroke-linecap="round" stroke-linejoin="round"/>
<path d="M19.1614 19.68H19.1691" stroke="black" stroke-width="1.875" stroke-linecap="round" stroke-linejoin="round"/>
</g>
<defs>
<clipPath id="clip0_489_5519">
<rect width="20.5357" height="20.5357" fill="white" transform="translate(12.3203 10.2678)"/>
</clipPath>
</defs>
</svg>
