<svg width="18" height="18" viewBox="0 0 18 18" fill="none" xmlns="http://www.w3.org/2000/svg">
<ellipse cx="8.7892" cy="8.78972" rx="8.7892" ry="8.78972" fill="black"/>
<path d="M13.1404 10.6455C13.178 10.3291 13.1686 10.0092 13.1139 9.69451C13.055 9.36016 12.9405 9.05907 12.7731 8.80063L12.7663 8.78954C12.5963 8.54134 12.4118 8.32384 12.2179 8.14387C12.0257 7.96561 11.8233 7.81123 11.6166 7.68414C11.403 7.55364 11.1818 7.45044 10.9589 7.37623C10.7573 7.3097 10.5625 7.25597 10.3686 7.21588H10.3661C10.3011 7.20309 10.2354 7.192 10.1705 7.18347C10.0569 7.16726 9.99279 7.10585 9.96546 7.07088C9.93385 7.02994 9.90054 6.96341 9.92275 6.87471C9.97144 6.68024 10.0065 6.48833 10.0278 6.30409C10.0526 6.09257 10.0534 5.87421 10.0312 5.6533C10.0065 5.41192 9.94069 5.17907 9.83562 4.96157C9.72287 4.72958 9.55802 4.52061 9.34533 4.34064C9.12751 4.15641 8.84905 4.01311 8.51764 3.91417L8.50909 3.91161C8.24515 3.83741 7.99317 3.80329 7.75998 3.80926C7.5268 3.81608 7.30642 3.85447 7.10654 3.92611C6.91692 3.99349 6.74181 4.08305 6.5855 4.19223C6.44285 4.29202 6.31216 4.40376 6.19002 4.52914C5.93718 4.79781 5.72962 5.12534 5.57245 5.5066C5.28374 6.22136 5.0608 6.931 4.9079 7.61932C4.8464 7.91443 4.79259 8.22405 4.74817 8.53963C4.70205 8.86716 4.67984 9.19981 4.68411 9.52648C4.68753 9.85912 4.7217 10.1866 4.78405 10.4997C4.85153 10.8357 4.97026 11.1522 5.13511 11.4362C5.33072 11.785 5.6143 12.116 5.97904 12.4196C6.33437 12.7165 6.74865 12.9698 7.20904 13.1745C7.56267 13.3314 7.94449 13.4525 8.3468 13.537C8.46809 13.5626 8.59195 13.5839 8.71666 13.6027C9.26333 13.6828 9.82196 13.6734 10.3789 13.5745C10.6112 13.5404 10.8504 13.473 11.0895 13.3741C11.2963 13.293 11.5192 13.1736 11.7524 13.0192C11.9967 12.8572 12.2333 12.638 12.4537 12.3685C12.6416 12.1416 12.7962 11.8703 12.9149 11.5616C13.0294 11.2639 13.1054 10.956 13.1421 10.6455H13.1404Z" fill="white"/>
</svg>
